<svg xmlns="http://www.w3.org/2000/svg" viewBox="0 0 2048 1754" fill="white">
  <path d="M1891.5 589.1c-42.4-25.5-95.7-18.1-131 14.5l-171.7 158.7c-10.9 10.1-28.3 9.4-38.3-1.5-10.1-10.9-9.4-28.3 1.5-38.3l218.5-201.9c35.3-32.6 37.4-87.8 4.8-123.1s-87.8-37.4-123.1-4.8l-258.9 239.2c-10.9 10.1-28.3 9.4-38.3-1.5-10.1-10.9-9.4-28.3 1.5-38.3l295.3-272.9c35.3-32.6 37.4-87.8 4.8-123.1-32.6-35.3-87.8-37.4-123.1-4.8L1187.2 523c-10.9 10.1-28.3 9.4-38.3-1.5-10.1-10.9-9.4-28.3 1.5-38.3L1385.3 276c35.3-32.6 37.4-87.8 4.8-123.1-32.6-35.3-87.8-37.4-123.1-4.8L836.7 543.8c-178.1 164.6-285.1 337.8-285.1 553.3 0 90.2 0 176.8 47.9 267.1l-328.9 304c-35.3 32.6-37.4 87.8-4.8 123.1 32.6 35.3 87.8 37.4 123.1 4.8l367.5-339.6c138.7 79.6 293.9 95.7 396.2 95.7 230.5 0 447.1-93.5 614.9-251.2l171.9-158.9c35.3-32.6 37.4-87.8 4.8-123.1-15.6-16.9-37.1-26.5-59.6-27.8l106.8-98.7c45.6-42.2 28.3-119.1-30.9-144.4zM456.5 311.4c-20.1-37.5-68.4-49.2-107.8-26.1-39.4 23.1-54.3 70.8-33.2 106.5l159.7 270.9c20.1 34.1 64.9 46.1 100 26.8 35.1-19.3 47.7-63.8 28.1-99.4L456.5 311.4z"/>
</svg>
